<?xml version="1.0" encoding="UTF-8"?>
<svg id="Capa_1" data-name="Capa 1" xmlns="http://www.w3.org/2000/svg" version="1.1" viewBox="0 0 848.8 199.8">
  <defs>
    <style>
      .cls-1 {
        fill: #1a1a1a;
      }

      .cls-1, .cls-2 {
        stroke-width: 0px;
      }

      .cls-2 {
        fill: #ff6c08;
      }
    </style>
  </defs>
  <g>
    <path class="cls-2" d="M167.1,40.4L118.6,3.4c-6-4.6-14.3-4.6-20.3,0l-10.5,8-1.4,1.1-6.9,5.3-1.4,1.1-28.2,21.5c-4.1,3.1-6.6,8.1-6.6,13.3v92.4c0,5.2,2.5,10.1,6.6,13.3l21.4,16.3c.4.3.9.3,1.3,0l6.6-5c.6-.4.6-1.3,0-1.7l-23.1-17.6c-1.6-1.2-2.6-3.2-2.6-5.2V53.7c0-2,1-4,2.6-5.2l30.4-23.2,1.4-1.1,6.9-5.3,1.4-1.1,8.3-6.3c1.2-.9,2.6-1.4,4-1.4s2.8.4,4,1.4l48.5,37c1.6,1.2,2.6,3.2,2.6,5.2v92.4c0,2-1,4-2.6,5.2l-48.5,37c-2.3,1.8-5.6,1.8-8,0l-1.9-1.4c-.4-.3-.9-.3-1.3,0l-6.6,5c-.6.4-.6,1.3,0,1.7l3.6,2.8c3,2.3,6.6,3.4,10.1,3.4s7.2-1.1,10.1-3.4l48.5-37c4.1-3.1,6.6-8.1,6.6-13.3V53.7c0-5.2-2.5-10.2-6.6-13.3h0Z"/>
    <path class="cls-2" d="M95.8,180.8l28-21.4c4.1-3.1,6.6-8.1,6.6-13.3V53.7c0-5.2-2.5-10.2-6.6-13.3l-21.6-16.5c-.4-.3-.9-.3-1.3,0l-6.6,5c-.6.4-.6,1.3,0,1.7l23.3,17.8c1.6,1.2,2.6,3.2,2.6,5.2v92.4c0,2-1,4-2.6,5.2l-30.2,23.1-1.3,1-7,5.4-1.3,1-8.6,6.5c-2.3,1.8-5.6,1.8-8,0l-48.5-37c-1.6-1.2-2.6-3.2-2.6-5.2V53.7c0-2,1-4,2.6-5.2L61.2,11.5c1.2-.9,2.6-1.4,4-1.4s2.8.4,4,1.4l2.8,2.1c.4.3.9.3,1.3,0l6.6-5c.6-.4.6-1.3,0-1.7l-4.5-3.5c-6-4.6-14.3-4.6-20.3,0L6.6,40.4c-4.1,3.1-6.6,8.1-6.6,13.3v92.4c0,5.2,2.5,10.1,6.6,13.3l48.5,37c3,2.3,6.6,3.4,10.2,3.4s7.2-1.1,10.1-3.4l10.8-8.2,1.3-1,7-5.4,1.3-1h0Z"/>
  </g>
  <g>
    <polygon class="cls-1" points="247.5 22.4 228.7 22.4 228.7 114.8 290.9 114.8 290.9 99.2 247.5 99.2 247.5 22.4"/>
    <path class="cls-1" d="M355.4,105v-33.7c0-15.5-8-24.4-27.9-24.4s-28,10.2-28.6,21.8h15.6c.5-6.3,4.5-9.3,12.8-9.3s11.1,3.1,11.1,7.9-5,5.9-16,7.5c-14.7,2.1-26.6,6.7-26.6,21.3s9.6,20.3,23.1,20.3,16.2-3.9,19.5-8.9h.3c.4,3,1,6.1,2.1,7.4h16.9v-.7c-1.5-1.2-2.3-4.1-2.3-9.2h0ZM338.9,91.4c0,6.5-5.6,12.7-15.6,12.7s-10.3-2.2-10.3-8.4,4.5-8.3,13.7-10.3c4.4-1,9.2-2.1,12.3-3.9v10Z"/>
    <path class="cls-1" d="M432.6,20.6c-27.3,0-44.3,20.5-44.3,48.2s17.1,48.1,44.3,48.1,17.1-2.3,23.7-6.3l10.7,9.7,9.6-10.5-9.8-8.8c6.5-8.4,10.1-19.5,10.1-32.2,0-27.7-16.9-48.2-44.2-48.2h0ZM453.4,89l-8.4-7.8-9.6,10.3,8.1,7.5c-3.1,1.7-6.7,2.5-10.9,2.5-16.9,0-25.3-14.3-25.3-32.7s8.4-32.8,25.3-32.8,25,14.4,25,32.8-1.4,14.6-4.3,20.2h0Z"/>
    <path class="cls-1" d="M528,86.8c0,8.8-5,15-13.3,15s-11-4.3-11-12v-41.2h-17.5v44.2c0,14.5,8.3,23.9,23,23.9s14.5-3.5,19-9.6h.4v7.8h16.9V48.5h-17.6v38.3h0Z"/>
    <polygon class="cls-1" points="586.2 22 565.6 22 558.5 40.2 572.2 40.2 586.2 22"/>
    <rect class="cls-1" x="556.7" y="48.5" width="17.6" height="66.3"/>
    <path class="cls-1" d="M660.5,46.7c-8.4,0-15.4,4.4-19.9,11.6h-.3c-3.2-7-10-11.6-18.4-11.6s-15.6,4.7-19.3,10.7h-.4v-8.9h-16.9v66.3h17.6v-38.5c0-8.8,4.8-14.5,11.9-14.5s10.2,3.9,10.2,11.4v41.6h17.6v-38.5c0-8.8,4.5-14.5,11.9-14.5s10.2,3.9,10.2,11.4v41.6h17.6v-44.6c0-14.5-7.9-23.5-21.8-23.5h0Z"/>
    <rect class="cls-1" x="693.3" y="48.5" width="17.6" height="66.3"/>
    <rect class="cls-1" x="693.3" y="22.4" width="17.6" height="15.8"/>
    <path class="cls-1" d="M752.4,102.7c-10.7,0-15.8-8.4-15.8-20.9s5.4-20.9,16-20.9,11,4.4,12.2,10.2h17.2c-2.3-14.3-12.9-24.3-30.1-24.3s-33.1,15.2-33.1,35,13.1,35,34,35,28.7-11.2,29.9-25.3h-16.9c-1.2,7.5-6.2,11.2-13.3,11.2h0Z"/>
    <path class="cls-1" d="M846.4,105v-33.7c0-15.5-8-24.4-27.9-24.4s-28,10.2-28.6,21.8h15.6c.5-6.3,4.5-9.3,12.8-9.3s11.1,3.1,11.1,7.9-5,5.9-16,7.5c-14.7,2.1-26.6,6.7-26.6,21.3s9.6,20.3,23.1,20.3,16.2-3.9,19.5-8.9h.3c.4,3,1,6.1,2.1,7.4h16.9v-.7c-1.5-1.2-2.3-4.1-2.3-9.2h0ZM829.9,91.4c0,6.5-5.6,12.7-15.6,12.7s-10.3-2.2-10.3-8.4,4.5-8.3,13.7-10.3c4.4-1,9.2-2.1,12.3-3.9v10Z"/>
    <path class="cls-1" d="M264.3,161c0-10.9-6.9-19.1-17.9-19.1s-17.9,8.1-17.9,19.1,6.9,19.1,17.9,19.1,6.5-.8,9.1-2.2l5.7,4.5,2.4-3-4.9-3.9c3.6-3.4,5.7-8.5,5.7-14.5h0ZM255.2,172.9l-4.6-3.7-2.4,3,3.7,3c-1.6.7-3.4,1-5.5,1-8.6,0-13.2-6.4-13.2-15s4.6-15.1,13.2-15.1,13.2,6.5,13.2,15.1-1.5,9.1-4.4,11.8h0Z"/>
    <path class="cls-1" d="M328.2,167.1c0,6.2-3.5,8.9-9.3,8.9s-9.6-2.7-9.6-8.9v-24.3h-4.6v24.8c0,8.9,6,12.4,14,12.4s14-3.5,14-12.4v-24.8h-4.6v24.3h0Z"/>
    <rect class="cls-1" x="374.9" y="142.8" width="4.6" height="36.6"/>
    <path class="cls-1" d="M448.6,171.3c-.4-5.4-1.5-8-5.3-9.3h0c4.4-1.6,6.3-4.8,6.3-9.2s-4.4-10-10.8-10h-17.1v36.6h4.6v-15.4h10.2c4.9,0,7.1,1.9,7.4,7.3.4,6.1.6,7.5,1.3,8.2h5v-.2c-.7-.5-1.3-1.9-1.7-7.8h0ZM437.2,160.2h-10.8v-13.4h11.1c5.4,0,7.4,2.2,7.4,6.7s-2.6,6.7-7.7,6.7h0Z"/>
    <path class="cls-1" d="M513.7,167.1c0,6.2-3.5,8.9-9.3,8.9s-9.6-2.7-9.6-8.9v-24.3h-4.6v24.8c0,8.9,6,12.4,14,12.4s14-3.5,14-12.4v-24.8h-4.6v24.3h0Z"/>
    <path class="cls-1" d="M587.1,171.3c-.4-5.4-1.5-8-5.3-9.3h0c4.4-1.6,6.3-4.8,6.3-9.2s-4.3-10-10.8-10h-17.1v36.6h4.6v-15.4h10.2c4.9,0,7.1,1.9,7.4,7.3.4,6.1.6,7.5,1.3,8.2h5v-.2c-.7-.5-1.3-1.9-1.7-7.8h0ZM575.7,160.2h-10.8v-13.4h11.1c5.4,0,7.4,2.2,7.4,6.7s-2.6,6.7-7.7,6.7h0Z"/>
    <path class="cls-1" d="M644.8,164h11v.9c0,6.1-3.5,11.2-11,11.2s-12.6-6-12.6-14.9,4-15.2,12.8-15.2,9.2,2.9,10.2,7.8h4.8c-1.2-7.2-6.4-11.8-14.9-11.8s-17.6,8.4-17.6,19.2,6.9,18.9,17.2,18.9,8.8-1.8,11.4-5.6h0l1.3,4.8h3v-19.3h-15.6v4h0Z"/>
    <rect class="cls-1" x="702.4" y="142.8" width="4.6" height="36.6"/>
    <path class="cls-1" d="M765.1,176c-7.6,0-12.6-6-12.6-15s4.5-15.1,12.5-15.1,9.4,3.1,10.3,7.7h4.5c-1-6.8-6.1-11.7-14.7-11.7s-17.3,8.3-17.3,19.1,6.8,19,17.1,19,8.4-1.3,10.9-3.8c2.6-2.6,4.3-6.6,4.4-10.3h-4.5c-.5,5.4-3.7,10.1-10.6,10.1h0Z"/>
    <path class="cls-1" d="M829.9,142.8l-13.5,36.6h4.7l3.9-11.1h14.6l3.9,11.1h5l-13.5-36.6h-5.2ZM826.4,164.5l4.3-12.3c.7-2.1,1.7-5.2,1.7-5.2h0s.9,3.1,1.6,5.2l4.2,12.3h-12Z"/>
  </g>
</svg>