<?xml version="1.0" encoding="UTF-8"?>
<svg id="Capa_1" data-name="Capa 1" xmlns="http://www.w3.org/2000/svg" version="1.1" viewBox="0 0 946.49 227.38">
  <defs>
    <style>
      .cls-1 {
        fill: #674be2;
      }

      .cls-1, .cls-2 {
        stroke-width: 0px;
      }

      .cls-2 {
        fill: #684ce2;
      }
    </style>
  </defs>
  <path class="cls-1" d="M160.75,193.54c-24.43,30.42-65.56,41.85-102.34,28.03C22.89,208.22-1.04,173.85.04,134.84,1.26,91.03,31.14,63.91,53.53,54.93c-3.29,17.88-.44,34.6,9.16,49.99,7.49,12.01,17.85,20.77,30.78,26.54,24.74,11.03,60.84,6.7,82.36-21.89,7.61,19.19,8.04,55.19-15.08,83.97Z"/>
  <path class="cls-2" d="M335.97,155.75c-4.27,10.3-12,16.98-22.2,20.96-9.11,3.54-18.59,4.38-28.28,3.51-6.92-.61-13.57-2.17-19.81-5.23-13.31-6.51-21.11-17.19-23.81-31.69-.02-.07-.03-.15-.04-.23-.33-2.21-.26-2.31,1.97-2.31,7.67-.01,15.35-.01,23.03-.01.72,0,1.44.04,2.16,0,.79-.05,1.17.33,1.32,1.05.08.39.15.79.24,1.18,1.86,8.12,6.83,13.18,14.94,15.09,5.83,1.37,11.6,1.16,17.17-1.15,7.16-2.97,10.57-9.91,8.67-17.43-1.02-4.03-3.6-6.88-7.05-9.02-2.67-1.66-5.58-2.76-8.57-3.66-7.96-2.39-15.92-4.77-23.86-7.22-6.16-1.91-11.89-4.68-16.81-8.95-6.89-5.97-10.45-13.54-11-22.62-.53-8.77,1.39-16.83,6.6-23.98,4.81-6.63,11.28-11.11,18.94-13.7,14.69-4.98,29.43-5.09,43.76,1.15,13.57,5.91,20.96,16.76,23.29,31.22.19,1.14-.3,1.39-1.29,1.38-4.32-.02-8.64-.01-12.95-.01-4.08,0-8.16-.03-12.24.02-1.2.02-1.89-.22-2.13-1.59-1.3-7.56-7.1-12.72-15.49-13.74-4.24-.51-8.46-.21-12.5,1.44-5.95,2.43-9.21,7.2-9.08,13.32.09,3.89,1.86,6.88,4.86,9.21,2.69,2.09,5.76,3.42,9,4.4,8.41,2.53,16.83,5.02,25.25,7.56,7.14,2.15,13.65,5.44,18.95,10.82,6.05,6.13,9.09,13.62,9.66,22.14.41,6.21-.29,12.29-2.7,18.09Z"/>
  <path class="cls-2" d="M944.89,112.33c-4.03-15.97-13.27-27.67-28.53-34.22-10.2-4.37-20.89-5.23-31.75-3.18-16.39,3.11-28.77,11.93-36.72,26.65-5.77,10.7-7.47,22.2-5.71,34.17,2.43,16.51,10.64,29.39,25.22,37.65,15.42,8.74,31.66,9.51,48.08,3.09,12.71-4.97,21.89-13.88,27.37-26.46.43-1.01.94-2.02,1.06-3.48-9.1,0-17.97.01-26.85-.02-.95,0-1.41.47-1.89,1.16-6.21,8.91-15.01,11.56-25.25,9.99-10.69-1.64-17.33-8.27-20.86-18.26-1.1-3.12-1.06-3.14,2.23-3.14,23.92,0,47.84,0,71.76-.01,3.17,0,2.89.49,3.14-2.72.55-7.12.47-14.23-1.3-21.22ZM919.34,116.22h-50.84c1.1-4.14,2.9-7.66,5.48-10.76,4.27-5.13,9.79-8.03,16.41-8.98,6.22-.89,12.11,0,17.58,3.13,5.92,3.39,9.55,8.58,11.41,15.08.13.46.24.93-.04,1.53Z"/>
  <path class="cls-2" d="M176.07,108.9c-8.96-24.9-25.03-43.34-49.16-54.1-24.11-10.75-48.51-10.34-73.1-.31,3.59-20.49,20.79-45.79,51.97-52.84,27.97-6.33,57.39,5.9,72.68,29.89,15.76,24.73,13.64,55.82-2.39,77.36Z"/>
  <path class="cls-2" d="M405.38,73.95c-29.35-.11-53.67,22.07-53.61,53.59.07,30.79,23.58,53.01,53.07,52.99,30.16,0,53.31-23.15,53.34-53.36.04-30.2-22.75-53.1-52.8-53.22ZM425.14,148.33c-4.63,5.31-10.55,8.18-17.55,8.74-8.72.69-16.26-1.92-22.24-8.43-3.77-4.11-5.96-9.02-7.02-14.47-1.4-7.26-.9-14.37,2.2-21.1,4.41-9.58,11.91-14.98,22.56-15.68,15.21-1,26.11,9.24,28.74,23.02.45,2.36.59,4.75.6,7.15-.01,7.77-2.11,14.84-7.29,20.77Z"/>
  <path class="cls-2" d="M594.59,166.11c-4.09,5.25-9.51,8.75-15.69,11.04-8.4,3.11-17.08,3.92-25.97,3.08-6.35-.6-12.45-2.08-18.14-5.02-11.29-5.83-18.01-15.02-20.05-27.58-.25-1.53-.22-1.59,1.39-1.59,7.52-.02,15.04,0,22.55-.02.97,0,1.68.09,1.97,1.22,1.99,7.9,7.78,11.15,15.22,12.1,3.98.51,7.99.39,11.88-.89,1.61-.52,3.08-1.29,4.43-2.33,4.35-3.32,5.29-11.73-1.67-14.86-3.04-1.36-6.3-1.77-9.49-2.46-6.87-1.48-13.77-2.81-20.63-4.38-4.62-1.05-8.97-2.88-12.85-5.7-8.46-6.15-11.58-14.65-10.47-24.76,1.41-12.79,8.87-21.22,20.38-26,13-5.4,26.37-5.68,39.52-.53,12.32,4.83,19.28,14.31,21.83,27.15.18.91.54,1.84.34,2.79-.52.41-1.1.3-1.65.3-7.28.01-14.56,0-21.83.02-1.16,0-1.91-.13-2.21-1.51-1.31-6.07-5.25-9.54-11.2-10.76-4.22-.86-8.43-.7-12.54.7-1.61.55-3.07,1.37-4.35,2.48-4.41,3.8-3.84,10.22,1.16,13.16,1.81,1.07,3.78,1.69,5.84,2.1,8.53,1.74,17.06,3.47,25.58,5.28,3.14.67,6.11,1.85,8.97,3.33,7.33,3.81,12.06,9.63,13.58,17.83,1.76,9.43.07,18.15-5.9,25.81Z"/>
  <path class="cls-2" d="M833.47,141.43c-1.08,5.11-2.98,9.92-5.7,14.38-7.61,12.46-18.64,20.19-32.85,23.37-11.24,2.51-22.29,1.75-32.95-2.62-13.32-5.46-22.82-14.97-27.97-28.41-5.95-15.55-5.47-31.09,2.14-45.99,7.64-14.97,20.04-24.09,36.55-27.18,14.94-2.8,29-.26,41.56,8.61,10.09,7.14,16.24,17.01,19.15,28.96.04.15-.01.31-.04.72-.51.03-.9.09-1.29.09-8.16,0-16.32-.02-24.48.03-1.2,0-1.82-.37-2.33-1.5-4.08-9.09-11.12-14.03-21.08-14.5-10.32-.5-18.34,3.71-23.73,12.54-3.65,5.99-4.78,12.62-4.35,19.58.42,6.64,2.35,12.71,6.46,18,9.35,12,27.97,13.06,38.34,2.19,2.01-2.11,3.53-4.55,4.63-7.23.34-.81.69-1.33,1.69-1.32,8.56.04,17.12.04,25.68.06.15,0,.29.11.57.22Z"/>
  <path class="cls-2" d="M672.75,160.76c0,5.36.01,10.72-.01,16.08-.01,2.03-.03,2.1-1.93,2.09-7.27-.06-14.55.27-21.81-.3-4.5-.36-8.84-1.37-12.88-3.46-6.56-3.41-10.25-8.95-11.81-16.04-.73-3.29-.95-6.63-.94-10,.02-7.67,0-15.35,0-23.02v-25.19c0-.48.01-.96,0-1.44-.04-1.84-.04-1.87-1.85-1.88-4.16-.02-8.32-.01-12.48-.01-.56,0-1.12-.03-1.68.01-.99.07-1.44-.3-1.43-1.36.03-6.4.04-12.8-.01-19.19-.01-1.41.75-1.51,1.82-1.5,4.48.02,8.95.02,13.43,0,2.18,0,2.2-.02,2.2-2.26.01-7.51,0-15.03.01-22.54,0-2.21.02-2.22,2.23-2.23h21.83c2.24.01,2.26.02,2.26,2.2.01,7.2.01,14.39.01,21.59,0,.48-.02.96,0,1.44q.05,1.74,1.69,1.8c.56.02,1.12.01,1.68.01,5.92,0,11.83-.01,17.75,0,1.86.01,1.9.04,1.91,1.84.02,6.15.02,12.31,0,18.47-.01,1.67-.05,1.71-1.77,1.71-6.16.02-12.31.01-18.47.01-.56,0-1.12.03-1.68.01-.83-.03-1.13.41-1.11,1.18,0,.48,0,.96,0,1.44,0,15.35-.01,30.7,0,46.06,0,.87-.01,1.76.09,2.63.54,4.71,3.02,7.14,7.7,7.73,3.83.48,7.67.22,11.5.27,3.74.04,3.75,0,3.75,3.85Z"/>
  <path class="cls-1" d="M496.48,178.82c-6.72.02-13.44.01-20.16,0-.56,0-1.12-.02-1.68-.01-.78.02-1.18-.33-1.17-1.14.01-.72,0-1.44,0-2.16v-61.91c0-20.72-.01-41.44,0-62.16,0-3.29-.29-2.9,2.98-2.91,7.04-.02,14.08-.02,21.12,0,1.97,0,2,.03,2.01,1.96.01,3.92,0,7.84,0,11.76v113.51c0,3.41.37,3.05-3.09,3.06Z"/>
  <path class="cls-2" d="M713.38,178.94c-1.52-.03-3.04,0-4.56,0-6.08,0-12.16.01-18.24-.01-1.87,0-1.88-.04-1.92-1.82-.02-.8,0-1.6,0-2.4,0-32.08,0-64.15,0-96.23,0-3.21-.34-2.91,2.99-2.92,6.88-.01,13.76,0,20.63,0,3,0,2.67-.13,2.67,2.77v97.42c0,.56-.04,1.13.01,1.68.1,1.19-.51,1.54-1.58,1.51Z"/>
  <path class="cls-2" d="M716.93,49.09c.06,7.14-5.56,15.09-15.11,15.04-10-.04-15.24-8.26-15.17-14.99.08-8.38,6.69-15.03,15.1-15.02,8.42.01,15.11,6.67,15.18,14.97Z"/>
</svg>